#!OML:ASF E:\motion texture\Top Level 1\Subject 1\Session 1\male.ASF
:FULLY-SPECIFIED
:DEGREES
588
root -26.735 17.6783 2.90561 658.094 -98.8641 -652.025
lowerback -2.96619 1.7939 7.40341
upperback -1.62541 2.10251 2.71136
thorax 0.15175 0.980499 -1.2805
lowerneck -18.4569 -0.0981435 -3.73579
upperneck 30.7443 -0.627036 3.32387
head 13.4716 -0.486783 1.79825
rclavicle -2.43418e-014 -1.23246e-014
rhumerus -22.9668 -3.546 -80.9881
rradius 41.1215
rwrist -2.3257
rhand -13.408 -36.1619
rfingers 7.12502
rthumb 12.6999 -65.7558
lclavicle -2.43418e-014 -1.23246e-014
lhumerus -30.9455 31.4074 81.9317
lradius 19.9443
lwrist -5.29936
lhand -8.50334 40.9579
lfingers 7.12502
lthumb 17.4245 70.1969
rfemur -0.35109 5.39711 30.4401
rtibia 26.3829
rfoot -13.9531 -12.595
rtoes -5.99747
lfemur -29.0473 -3.48424 -4.86573
ltibia 17.695
lfoot -0.012305 8.22042
ltoes -6.01512
589
root -26.8856 17.6729 2.92306 658.485 -98.6952 -652.525
lowerback -2.98411 1.75222 7.21441
upperback -1.63083 2.05353 2.66314
thorax 0.148006 0.958018 -1.22719
lowerneck -18.4589 -0.11941 -3.76315
upperneck 30.8208 -0.659001 3.33196
head 13.5063 -0.50568 1.80175
rclavicle 1.01287e-014 2.37548e-014
rhumerus -22.8279 -3.29579 -81.3198
rradius 41.1515
rwrist -2.38737
rhand -13.2908 -36.1279
rfingers 7.12502
rthumb 12.8129 -65.7147
lclavicle 1.01287e-014 2.37548e-014
lhumerus -28.6852 27.8548 84.9624
lradius 21.2214
lwrist -2.40437
lhand -8.32734 41.0726
lfingers 7.12502
lthumb 17.5939 70.2966
rfemur -0.512098 5.2458 30.1105
rtibia 27.5833
rfoot -13.4995 -12.5569
rtoes -6.6375
lfemur -28.7533 -3.6732 -5.22067
ltibia 17.6786
lfoot 0.137475 8.11507
ltoes -5.5417
590
root -27.0365 17.6689 2.94106 658.886 -98.515 -653.043
lowerback -2.9963 1.70856 7.01282
upperback -1.63498 2.00287 2.61447
thorax 0.142074 0.934772 -1.16749
lowerneck -18.4607 -0.145669 -3.79603
upperneck 30.8938 -0.696436 3.34073
head 13.5397 -0.527435 1.8055
rclavicle -7.85821e-015 -9.64106e-015
rhumerus -22.7082 -3.04045 -81.6477
rradius 41.2131
rwrist -2.45944
rhand -13.1732 -36.0806
rfingers 7.12502
rthumb 12.9262 -65.6603
lclavicle -7.85821e-015 -9.64106e-015
lhumerus -26.7512 24.3387 87.5492
lradius 22.6278
lwrist 0.287151
lhand -8.13701 41.186
lfingers 7.12502
lthumb 17.777 70.3934
rfemur -0.71907 5.07336 29.7587
rtibia 28.8415
rfoot -12.9705 -12.5187
rtoes -7.17269
lfemur -28.4454 -3.84793 -5.60804
ltibia 17.7334
lfoot 0.258435 7.98693
ltoes -5.07104
591
root -27.1877 17.6663 2.95951 659.298 -98.3265 -653.579
lowerback -3.00407 1.66349 6.80106
upperback -1.63715 1.95097 2.56652
thorax 0.135537 0.911015 -1.10148
lowerneck -18.4627 -0.177315 -3.83404
upperneck 30.9619 -0.739527 3.34909
head 13.5716 -0.552178 1.80896
rclavicle 5.72748e-015 2.08724e-014
rhumerus -22.604 -2.78022 -81.9704
rradius 41.3045
rwrist -2.54179
rhand -13.0524 -36.0183
rfingers 7.12502
rthumb 13.0427 -65.5906
lclavicle 5.72748e-015 2.08724e-014
lhumerus -25.084 20.9285 89.7379
lradius 24.1487
lwrist 2.7166
lhand -7.88234 41.2726
lfingers 7.12502
lthumb 18.022 70.4577
rfemur -0.972226 4.87967 29.3888
rtibia 30.1537
rfoot -12.3648 -12.4845
rtoes -7.59512
lfemur -28.1221 -4.00652 -6.02298
ltibia 17.8526
lfoot 0.348931 7.83793
ltoes -4.61087
592
root -27.3392 17.6652 2.97841 659.731 -98.1305 -654.142
lowerback -3.00789 1.61668 6.57978
upperback -1.63881 1.89734 2.51931
thorax 0.127174 0.886418 -1.02948
lowerneck -18.4612 -0.212088 -3.87827
upperneck 31.0243 -0.785461 3.35901
head 13.6005 -0.578591 1.81352
rclavicle -1.10822e-014 -3.05134e-014
rhumerus -22.5173 -2.51468 -82.2886
rradius 41.4274
rwrist -2.63327
rhand -12.9315 -35.9413
rfingers 7.12502
rthumb 13.1593 -65.506
lclavicle -1.10822e-014 -3.05134e-014
lhumerus -23.6311 17.6244 91.5944
lradius 25.7867
lwrist 4.96397
lhand -7.66495 41.3578
lfingers 7.12502
lthumb 18.2312 70.5235
rfemur -1.27296 4.66544 29.0008
rtibia 31.5151
rfoot -11.6814 -12.4572
rtoes -7.90401
lfemur -27.7823 -4.15124 -6.46269
ltibia 18.0264
lfoot 0.406307 7.67472
ltoes -4.15025
593
root -27.4906 17.6655 2.99772 660.177 -97.9271 -654.724
lowerback -3.0066 1.56758 6.34929
upperback -1.63928 1.84129 2.47336
thorax 0.116997 0.860651 -0.951174
lowerneck -18.4563 -0.250405 -3.9297
upperneck 31.0793 -0.834707 3.37151
head 13.6258 -0.6068 1.81968
rclavicle 1.23231e-014 4.63168e-014
rhumerus -22.4445 -2.24512 -82.6013
rradius 41.5818
rwrist -2.734
rhand -12.8089 -35.8553
rfingers 7.12502
rthumb 13.2774 -65.4124
lclavicle 1.23231e-014 4.63168e-014
lhumerus -22.3466 14.4737 93.1521
lradius 27.5228
lwrist 6.98111
lhand -7.42382 41.4152
lfingers 7.12502
lthumb 18.4632 70.559
rfemur -1.62203 4.43029 28.5965
rtibia 32.922
rfoot -10.9223 -12.4406
rtoes -8.104
lfemur -27.4256 -4.28274 -6.92527
ltibia 18.247
lfoot 0.431857 7.49867
ltoes -3.70215
594
root -27.6421 17.6673 3.0173 660.646 -97.7179 -655.333
lowerback -3.00161 1.517 6.11008
upperback -1.63865 1.78368 2.42907
thorax 0.105831 0.834159 -0.866322
lowerneck -18.4521 -0.29204 -3.98637
upperneck 31.129 -0.886562 3.38401
head 13.6491 -0.636597 1.82623
rclavicle -5.25848e-015 -6.06293e-014
rhumerus -22.3853 -1.9709 -82.908
rradius 41.7673
rwrist -2.84635
rhand -12.6896 -35.7567
rfingers 7.12502
rthumb 13.3924 -65.3063
lclavicle -5.25848e-015 -6.06293e-014
lhumerus -21.1943 11.4917 94.4489
lradius 29.3453
lwrist 8.77443
lhand -7.16045 41.4271
lfingers 7.12502
lthumb 18.7165 70.5467
rfemur -2.01723 4.1763 28.1784
rtibia 34.3661
rfoot -10.0928 -12.4362
rtoes -8.16201
lfemur -27.049 -4.40188 -7.40631
ltibia 18.5047
lfoot 0.423865 7.31512
ltoes -3.26874
595
root -27.7936 17.6704 3.03712 661.139 -97.5046 -655.97
lowerback -2.99291 1.46523 5.86421
upperback -1.63698 1.7248 2.38667
thorax 0.0937001 0.80706 -0.77583
lowerneck -18.4487 -0.337347 -4.04751
upperneck 31.1722 -0.941672 3.39639
head 13.6702 -0.66815 1.83288
rclavicle 8.43825e-015 -1.98785e-015
rhumerus -22.3368 -1.69346 -83.208
rradius 41.9831
rwrist -2.96981
rhand -12.5668 -35.6521
rfingers 7.12502
rthumb 13.5108 -65.1938
lclavicle 8.43825e-015 -1.98785e-015
lhumerus -20.1414 8.68932 95.5173
lradius 31.2394
lwrist 10.3515
lhand -6.87106 41.395
lfingers 7.12502
lthumb 18.9948 70.4875
rfemur -2.45925 3.90372 27.7488
rtibia 35.8421
rfoot -9.19759 -12.4458
rtoes -8.10579
lfemur -26.652 -4.51077 -7.90171
ltibia 18.7894
lfoot 0.383385 7.12852
ltoes -2.85293
596
root -27.945 17.6749 3.05709 661.663 -97.2877 -656.641
lowerback -2.98054 1.41221 5.61167
upperback -1.6354 1.66459 2.34609
thorax 0.0795154 0.779282 -0.679739
lowerneck -18.4426 -0.385699 -4.11257
upperneck 31.2074 -0.999545 3.40897
head 13.6874 -0.701152 1.8397
rclavicle 1.19333e-014 1.96797e-014
rhumerus -22.2991 -1.41399 -83.5015
rradius 42.2285
rwrist -3.10312
rhand -12.4435 -35.5377
rfingers 7.12502
rthumb 13.6296 -65.0715
lclavicle 1.19333e-014 1.96797e-014
lhumerus -19.1659 6.0708 96.3845
lradius 33.1945
lwrist 11.7243
lhand -6.5525 41.3149
lfingers 7.12502
lthumb 19.3012 70.377
rfemur -2.94775 3.61457 27.3093
rtibia 37.3438
rfoot -8.24463 -12.4715
rtoes -7.93355
lfemur -26.2335 -4.61189 -8.40857
ltibia 19.0912
lfoot 0.31114 6.94332
ltoes -2.46206
597
root -28.0962 17.6806 3.07714 662.224 -97.068 -657.349
lowerback -2.9662 1.35804 5.35305
upperback -1.63392 1.60296 2.3077
thorax 0.0642414 0.750792 -0.577972
lowerneck -18.4318 -0.436438 -4.18159
upperneck 31.2331 -1.05927 3.42187
head 13.6998 -0.735193 1.84686
rclavicle -2.73407e-015 2.78299e-015
rhumerus -22.2725 -1.13197 -83.788
rradius 42.5044
rwrist -3.247
rhand -12.3188 -35.4194
rfingers 7.12502
rthumb 13.7498 -64.9451
lclavicle -2.73407e-015 2.78299e-015
lhumerus -18.2484 3.63729 97.0753
lradius 35.1979
lwrist 12.9065
lhand -6.20624 41.1792
lfingers 7.12502
lthumb 19.6341 70.2078
rfemur -3.48094 3.30937 26.8619
rtibia 38.863
rfoot -7.24219 -12.5146
rtoes -7.64322
lfemur -25.7923 -4.70727 -8.92368
ltibia 19.401
lfoot 0.205941 6.76267
ltoes -2.09487
598
root -28.2471 17.6876 3.0972 662.817 -96.847 -658.092
lowerback -2.9491 1.30306 5.08991
upperback -1.63204 1.54035 2.27196
thorax 0.0480393 0.721818 -0.470898
lowerneck -18.4217 -0.490286 -4.25469
upperneck 31.2507 -1.12165 3.43534
head 13.709 -0.770516 1.85441
rclavicle -2.03048e-014 -3.77691e-014
rhumerus -22.2531 -0.847513 -84.0665
rradius 42.8086
rwrist -3.40253
rhand -12.194 -35.2965
rfingers 7.12502
rthumb 13.87 -64.814
lclavicle -2.03048e-014 -3.77691e-014
lhumerus -17.3726 1.38697 97.6118
lradius 37.2381
lwrist 13.9092
lhand -5.83222 40.989
lfingers 7.12502
lthumb 19.9936 69.9804
rfemur -4.05657 2.98881 26.4096
rtibia 40.3922
rfoot -6.20282 -12.5749
rtoes -7.24838
lfemur -25.3269 -4.80014 -9.44324
ltibia 19.7091
lfoot 0.0689426 6.58939
ltoes -1.75384
599
root -28.3977 17.6957 3.11721 663.461 -96.6258 -658.884
lowerback -2.92966 1.24771 4.82268
upperback -1.63132 1.47729 2.23864
thorax 0.0296039 0.692574 -0.358973
lowerneck -18.4084 -0.546933 -4.33095
upperneck 31.2588 -1.18672 3.4494
head 13.7137 -0.807079 1.86214
rclavicle -2.85404e-015 -4.17448e-015
rhumerus -22.2425 -0.562317 -84.3375
rradius 43.1419
rwrist -3.56874
rhand -12.071 -35.1732
rfingers 7.12502
rthumb 13.9886 -64.6825
lclavicle -2.85404e-015 -4.17448e-015
lhumerus -16.5298 -0.683931 98.0123
lradius 39.3033
lwrist 14.7453
lhand -5.43126 40.7318
lfingers 7.12502
lthumb 20.379 69.6825
rfemur -4.67495 2.65558 25.9543
rtibia 41.9248
rfoot -5.1395 -12.6517
rtoes -6.75764
lfemur -24.8374 -4.89046 -9.96481
ltibia 20.0066
lfoot -0.0981218 6.42538
ltoes -1.44043
